inDegrees=no
num_controls=7
num_derivatives=13
num_iterations=152
num_multipliers=7
num_parameters=0
num_slacks=7
num_states=26
objective=5.779566
objective_accelerations=0.689384
objective_balance=0.011449
objective_effort=0.491716
objective_height=4.516960
objective_ligament=0.070057
solver_duration=1269.003635
status=Solve_Succeeded
success=true
DataType=double
version=3
OpenSimVersion=4.4-2022-07-23-0e9fedc
endheader
time	/jointset/ground_pelvis/pelvis_tilt/value	/jointset/ground_pelvis/pelvis_tx/value	/jointset/ground_pelvis/pelvis_ty/value	/jointset/hip_r/hip_flexion_r/value	/jointset/hip_r/hip_adduction_r/value	/jointset/hip_r/hip_rotation_r/value	/jointset/back/lumbar_extension/value	/jointset/patellofemoral_r/patellar_flexion_r/value	/jointset/knee_r/knee_flexion_r/value	/jointset/knee_r/knee_adduction_r/value	/jointset/knee_r/knee_rotation_r/value	/jointset/ankle_r/ankle_angle_r/value	/jointset/subtalar_r/subtalar_angle_r/value	/jointset/ground_pelvis/pelvis_tilt/speed	/jointset/ground_pelvis/pelvis_tx/speed	/jointset/ground_pelvis/pelvis_ty/speed	/jointset/hip_r/hip_flexion_r/speed	/jointset/hip_r/hip_adduction_r/speed	/jointset/hip_r/hip_rotation_r/speed	/jointset/back/lumbar_extension/speed	/jointset/patellofemoral_r/patellar_flexion_r/speed	/jointset/knee_r/knee_flexion_r/speed	/jointset/knee_r/knee_adduction_r/speed	/jointset/knee_r/knee_rotation_r/speed	/jointset/ankle_r/ankle_angle_r/speed	/jointset/subtalar_r/subtalar_angle_r/speed	/forceset/tau_hip_flexion_r	/forceset/tau_hip_adduction_r	/forceset/tau_hip_rotation_r	/forceset/tau_knee_flexion_r	/forceset/tau_ankle_angle_r	/forceset/tau_subtalar_angle_r	/forceset/tau_lumbar_extension	lambda_cid13_p0	lambda_cid14_p0	lambda_cid14_p1	lambda_cid14_p2	lambda_cid14_p3	lambda_cid14_p4	lambda_cid14_p5	/jointset/ground_pelvis/pelvis_tilt/accel	/jointset/ground_pelvis/pelvis_tx/accel	/jointset/ground_pelvis/pelvis_ty/accel	/jointset/hip_r/hip_flexion_r/accel	/jointset/hip_r/hip_adduction_r/accel	/jointset/hip_r/hip_rotation_r/accel	/jointset/back/lumbar_extension/accel	/jointset/patellofemoral_r/patellar_flexion_r/accel	/jointset/knee_r/knee_flexion_r/accel	/jointset/knee_r/knee_adduction_r/accel	/jointset/knee_r/knee_rotation_r/accel	/jointset/ankle_r/ankle_angle_r/accel	/jointset/subtalar_r/subtalar_angle_r/accel	gamma_cid13_p0	gamma_cid14_p0	gamma_cid14_p1	gamma_cid14_p2	gamma_cid14_p3	gamma_cid14_p4	gamma_cid14_p5
1.5	-0.09310602610028151	0.02088453958504318	0.8033903030075313	0.8681815342998898	-0.2215500360654712	-0.1278075059894768	-0.6349970531914866	0.9867993241834718	0.9867993241834556	-0.06567754150477194	0.1745151955285904	0.3072697921619467	0.1459682112202874	0.4942133184632448	0.2331874962481646	0.5673920071077521	-2.162376021552214	0.03775925188004559	-0.2215887690804079	0.8002333470521236	-2.090031124975499	-2.09003112497549	0.4301466199128239	0.0002528626106975626	-0.526141331952893	-0.1551946919993153	-0.1664876671103191	-0.003537974961970576	0.01947482746751018	-0.3202429938144282	0.03005156663720882	0.00307865955052114	0.2184567148212468	-6.959827302721179	-32.02949680897447	-3.78919314264836	0.4756140975717458	-5.60150685245626	-628.4825129688762	68.93010957232532	0.2583337601230168	0.6760876465798034	-0.5580556121514445	-1.128976332325478	-0.1836328151957227	-0.4842942976197485	1.964627631271729	-1.397956837088972	-1.397956837088975	0.5335037314386764	-0.0447272732059641	-0.6993121109344461	-0.41876647143594	1.35823250671832e-07	-1.898692215425472e-08	-2.058556758416552e-06	2.342404409927159e-07	2.149225076119133e-07	2.605400342610176e-07	-1.39351464095019e-06
1.51	-0.08815125614260985	0.02324995877920182	0.8090351862135752	0.8465033635554872	-0.2211827923958801	-0.1300475125514021	-0.6268983368837454	0.9658317073427153	0.9658317073424775	-0.0613475651500859	0.1745171478765631	0.3019738768986022	0.1443938644161089	0.4966591772765884	0.2398662721917361	0.5614608058329665	-2.172962706367496	0.03567704413778813	-0.2264625044656172	0.8193853413956882	-2.103204303980196	-2.103204303980218	0.4357792780766079	0.000159163347207916	-0.5329539233534426	-0.1596391426196978	-0.1587698500955148	-0.005168062421457374	0.01923478912962698	-0.3157539159300444	0.03153300548558652	0.002693572125886949	0.2112928765205214	-7.963230875292507	-31.20938029152514	-3.647576865324717	0.2642663193251131	-5.685186457566479	-622.9441316322597	68.76010561641694	0.2255053166307917	0.6592658899736118	-0.6291536253232922	-0.9791777536209504	-0.2222125464492933	-0.4960750826695381	1.871799369776761	-1.233848277106779	-1.233848277111379	0.5675777084102318	0.01184726145707575	-0.6590118799438865	-0.4519364118700373	1.805785148612624e-07	1.102318951675579e-07	-1.476905862226024e-06	1.218113327924569e-06	8.587131186332174e-08	3.294826338109675e-07	-9.718570586827914e-07
1.52	-0.08317446892191202	0.02568126439713935	0.8146170571588353	0.8247281933234158	-0.2208367103622643	-0.1323376888518625	-0.6186118378257978	0.9447409887427045	0.9447409887426836	-0.05696337604389459	0.1745188709345394	0.2966124798761796	0.1427761426948209	0.4986167710776892	0.2463647810039463	0.5547895549510152	-2.181775919082428	0.03352692468708351	-0.2316227167987797	0.8377898970944707	-2.114651476782761	-2.114651476782814	0.4409891702228745	0.0002070046587919425	-0.5392376837671293	-0.1638696754212966	-0.1510520330805789	-0.006798149880656604	0.01899475079408876	-0.3112648380454286	0.03301444433402124	0.002308484701653562	0.2041290382198838	-9.034291502759812	-30.38350534850036	-3.497496599181679	0.04305261134102847	-5.801369034248407	-617.3281149514581	68.66298281160206	0.160680757673352	0.6400342203084104	-0.7060655335844912	-0.7742819122557366	-0.1972151568852495	-0.5415896872100375	1.815139902314644	-1.052755596662723	-1.052755596662697	0.4489505279353429	-0.01641915819172349	-0.5935459135608012	-0.3759829076786964	1.964805509580769e-07	1.704334188278969e-07	-1.134533799828026e-06	1.669918638530349e-06	1.944799536278253e-08	3.563078094926984e-07	-7.405292522535554e-07
1.53	-0.07818064115006132	0.02817656417918706	0.8201285546840977	0.8028739804865269	-0.2205122760445661	-0.1346804639261644	-0.6101449654510326	0.9235446427067759	0.92354464270655	-0.0525292023907056	0.1745212050881312	0.2911910005863772	0.1411175205372814	0.5000702987685777	0.2526557462464187	0.5473936158770188	-2.188766263091955	0.0313494537658594	-0.2369318675357996	0.8554484391106568	-2.124312640950435	-2.124312640950462	0.4458125219172582	0.0002550418761007842	-0.5449656753938716	-0.1678181100272213	-0.143526052171712	-0.007421819799051287	0.01875755198437386	-0.3067467962526435	0.0343499132878274	0.001161761475506468	0.1970942640645587	-10.14896829641898	-29.69573563618208	-3.773138787201221	-0.02946066387718618	-5.72935696268424	-612.0545228642575	67.69681443622254	0.1259313724288122	0.6177172308851436	-0.7737424701311507	-0.6163323450535082	-0.2294420224387867	-0.5252282735201579	1.720790537970514	-0.8770681724508278	-0.8770681724469727	0.4939406636591406	0.01496311339090953	-0.5485092750120997	-0.3987568756919586	1.817260322064874e-07	1.573040679729208e-07	-1.04639549833459e-06	1.556402149289684e-06	1.95668005632983e-08	3.383832223144471e-07	-7.114268326523652e-07
1.54	-0.07317462958182297	0.0307335915245906	0.8255626159434556	0.7809588798695779	-0.2202099022286409	-0.1370762606090658	-0.6015055918187722	0.9022608307598469	0.9022608307597848	-0.04804781258593013	0.1745239292037897	0.2857150246827411	0.1394205174059552	0.5010535303648833	0.2587102936751161	0.5393023017700997	-2.193953475091573	0.02911482433656154	-0.2422270385357238	0.8722901485949472	-2.13214465894336	-2.132144658943361	0.4504324005503912	0.0002849971613267496	-0.5501370065318509	-0.171545870178834	-0.1360000712626735	-0.008045489716983665	0.01852035317651646	-0.3022287544596989	0.03568538224173938	1.503825007410971e-05	0.1900594899093336	-11.26507823048348	-29.00588865894642	-4.042825857884411	-0.1093107563226024	-5.677456988413804	-606.7656639077449	66.80075001696484	0.06662153875563454	0.5927506575542585	-0.8451405401689333	-0.4136555102738305	-0.2086468584995009	-0.5387937397894594	1.651773395934709	-0.6869263617132522	-0.6869263617132408	0.4082559156851802	-0.02003554461035126	-0.4822138158070834	-0.3318480168150511	1.715134458245265e-07	1.397377551832805e-07	-1.071553478489648e-06	1.400647658069038e-06	3.175789723792225e-08	3.269373333191056e-07	-7.434559775819406e-07
1.55	-0.06816121981882782	0.03334992153053301	0.8309123824074669	0.7590009990317645	-0.2199299359762444	-0.1395253774001443	-0.5927019592314141	0.8809077991819234	0.8809077991819009	-0.04352194590133268	0.1745267996737936	0.280190204697802	0.1376877191742433	0.5015434773133232	0.2645097646688447	0.5305444602845235	-2.197313596163467	0.02688051563879349	-0.2475729519031042	0.8882894296927614	-2.138150772956631	-2.138150772956628	0.4547015365611271	0.0002565039476552962	-0.5547278751032136	-0.174959161950137	-0.1284582007686102	-0.009298486613679768	0.01833822850953941	-0.2981022196323956	0.03709730453559892	-0.0009330132826165321	0.183043283425713	-12.37850575200043	-28.30291755782892	-4.200154882934304	-0.2342321306330826	-5.617982895263148	-601.8900126609626	66.27140623510773	0.02744834898261326	0.5666683683123549	-0.9070214158768636	-0.2508128903612413	-0.2304503997787391	-0.5287309051957606	1.551964587965046	-0.510854122580373	-0.5108541225795041	0.4301591856279951	0.00103416564106177	-0.432606881626017	-0.3379560373299818	1.665339554336591e-07	1.170592905993534e-07	-1.227248478804922e-06	1.19622764282798e-06	5.78583732196701e-08	3.229560313605946e-07	-8.459193164273943e-07
1.56	-0.0631454571711766	0.03602287085601617	0.8361713873639969	0.737018792486252	-0.2196722383156886	-0.1420272014788965	-0.5837427420088362	0.8595040264236019	0.8595040264235853	-0.03895460450822172	0.1745284432869253	0.2746224593263825	0.1359224107688111	0.5015241073056795	0.2700341575832685	0.5211500002738804	-2.198818616623934	0.02466110596645315	-0.2527684960698456	0.9034070756411023	-2.14229289502776	-2.142292895027751	0.4587273422462684	3.962574950311268e-05	-0.5587220838275763	-0.1780479049231455	-0.1209163302745907	-0.01055148351034563	0.01815610384202901	-0.2939756848051617	0.03850922682947035	-0.001881064815248626	0.1760270769420503	-13.48512255198948	-27.59942655514127	-4.35447008449824	-0.3629732527669856	-5.5711928470866	-597.0112287506416	65.80045070706342	-0.03524185246244442	0.5377350416943362	-0.9724642451822539	-0.04263538798863204	-0.2056670534145867	-0.5087198996627723	1.475446366039248	-0.3141279732847115	-0.3141279732847109	0.3595898505668308	-0.05771254150480726	-0.3628818464058541	-0.2669382571567033	1.63536245320626e-07	9.632046784681515e-08	-1.387679700856417e-06	1.00600156605802e-06	8.372097567832659e-08	3.197591421192521e-07	-9.425607026847076e-07
1.57	-0.05813247905338179	0.0387495940888201	0.8413333517589924	0.7150309408848138	-0.2194365626413067	-0.1445808561772807	-0.5746369302203146	0.838068173286515	0.8380681732864687	-0.03434884481968177	0.1745273208074726	0.2690177878118342	0.1341279897659248	0.5009835035986341	0.2752545475268841	0.5111451750575688	-2.198427277884577	0.02247824926031312	-0.2579389096020536	0.9175878297660244	-2.144553572946208	-2.144553572946223	0.4623777192241377	-0.0002892125283017849	-0.5621103109072395	-0.1807813205202208	-0.1133882572279719	-0.01172300611006766	0.01797611536908776	-0.2900652781108684	0.03993546320987916	-0.003041852118213444	0.1690264193421434	-14.5797965539893	-26.93557985218261	-4.624504572067981	-0.4545473691356075	-5.434396758872504	-592.5019536176907	65.17125992394078	-0.07666772385890017	0.5058245574850402	-1.029083956521069	0.1286895015954713	-0.2239832696029417	-0.5174405678265251	1.364272089807112	-0.1334463276934529	-0.1334463276969999	0.3605071316084199	-0.02412547538607045	-0.3114485028339383	-0.268469512235693	1.630157605548857e-07	7.800619738351288e-08	-1.554031200078189e-06	8.335179123769321e-07	1.092862362331189e-07	3.175427687743704e-07	-1.031924648206846e-06
